<svg xmlns="http://www.w3.org/2000/svg" width="16" height="16"><path d="M7.31 9.06l-.08.07-1.43 1.46a1.24 1.24 0 00-.23.32 1.17 1.17 0 00.19 1.33 1.15 1.15 0 00.95.37 1.18 1.18 0 00.79-.37l1.85-1.86 1.72-1.72a1.15 1.15 0 00.19-.27 1.11 1.11 0 00.12-.6 1 1 0 00-.21-.58c-.14-.17-.29-.32-.44-.48L7.34 3.34a1.1 1.1 0 00-1-.28 1.12 1.12 0 00-.7.41 1.14 1.14 0 00-.27.67 1.19 1.19 0 00.39 1l1.5 1.5.08.08H2.1a1.21 1.21 0 00-.72.42 1.15 1.15 0 00-.24 1 1.12 1.12 0 00.39.62 1.14 1.14 0 00.78.29h5zM12.51 8v3.93a.59.59 0 01-.26.5.67.67 0 01-.41.11h-1.27a1.18 1.18 0 00-.66.42 1.17 1.17 0 00.21 1.67 1.1 1.1 0 00.69.24h1a6 6 0 00.64 0 2.32 2.32 0 00.73-.24 3 3 0 00.62-.42 3.14 3.14 0 00.71-.86 2.88 2.88 0 00.35-1.42v-8.2a2.51 2.51 0 00-.26-.9 3.05 3.05 0 00-.88-1.07 2.88 2.88 0 00-1.78-.62h-1.32a1.15 1.15 0 00-.65.37 1.12 1.12 0 00-.31.73 1.1 1.1 0 00.18.67 1.13 1.13 0 001 .56h1.18a.62.62 0 01.55.56v3.94z" fill="#fff"/><path d="M7.31 9.06h-5a1.14 1.14 0 01-.78-.29 1.12 1.12 0 01-.39-.62 1.15 1.15 0 01.24-1 1.21 1.21 0 01.72-.45h5.24l-.08-.08-1.5-1.5a1.19 1.19 0 01-.39-1 1.14 1.14 0 01.27-.67 1.12 1.12 0 01.7-.41 1.1 1.1 0 011 .28l3.39 3.38c.15.15.3.31.44.48a1 1 0 01.21.58 1.11 1.11 0 01-.12.6 1.15 1.15 0 01-.19.27l-1.72 1.75-1.84 1.86a1.18 1.18 0 01-.79.37 1.15 1.15 0 01-.95-.37 1.17 1.17 0 01-.19-1.33 1.24 1.24 0 01.23-.32l1.43-1.44.08-.07z" fill="#fff"/><path d="M12.51 8V4.06a.62.62 0 00-.51-.57h-1.18a1.13 1.13 0 01-1-.56 1.1 1.1 0 01-.18-.67 1.12 1.12 0 01.36-.75 1.15 1.15 0 01.65-.37h1.32a2.88 2.88 0 011.78.62 3.05 3.05 0 01.85 1.04 2.51 2.51 0 01.26.9v8.2a2.88 2.88 0 01-.35 1.42 3.14 3.14 0 01-.71.86 3 3 0 01-.62.42 2.32 2.32 0 01-.73.24 5.94 5.94 0 01-.64 0h-1a1.1 1.1 0 01-.69-.24 1.17 1.17 0 01-.21-1.6 1.18 1.18 0 01.66-.42h1.27a.67.67 0 00.41-.11.59.59 0 00.26-.5V8.04z" fill="#fff"/></svg>