<svg xmlns="http://www.w3.org/2000/svg" width="27" height="15" viewBox="0 0 26.14 14.91"><path d="M26 13.47l-.09-.17a13.55 13.55 0 00-2.6-3q-.87-.83-1.1-1.12A1 1 0 0122 8a10.27 10.27 0 011.22-1.78l.88-1.16q2.35-3.13 2-4L26 .94a.8.8 0 00-.4-.22 2.14 2.14 0 00-.87 0h-3.92a.51.51 0 00-.27 0h-.3a.6.6 0 00-.15.14.93.93 0 00-.14.24 22.22 22.22 0 01-1.46 3.06q-.5.84-.93 1.46a7 7 0 01-.71.91 4.94 4.94 0 01-.52.47q-.23.18-.35.15l-.23-.05a.9.9 0 01-.31-.33 1.49 1.49 0 01-.16-.53V1.6a3.14 3.14 0 000-.62 2.12 2.12 0 00-.14-.44.73.73 0 00-.28-.33 1.57 1.57 0 00-.46-.18A9 9 0 0012.57 0a8.93 8.93 0 00-3.25.33 1.83 1.83 0 00-.52.41q-.25.3-.07.33a1.67 1.67 0 011.16.59l.08.16a2.6 2.6 0 01.19.63 6.32 6.32 0 01.12 1 10.59 10.59 0 010 1.7q-.07.71-.13 1.1a2.21 2.21 0 01-.18.64 2.69 2.69 0 01-.16.3l-.07.07a1 1 0 01-.37.07.86.86 0 01-.46-.19 3.27 3.27 0 01-.56-.52 7 7 0 01-.66-.93q-.37-.6-.76-1.42l-.22-.39q-.2-.38-.56-1.11t-.62-1.43A.9.9 0 005.2.9h-.07a.93.93 0 00-.22-.16A1.44 1.44 0 004.6.65L.87.68A1 1 0 00.1.94L0 1a.44.44 0 000 .22 1.08 1.08 0 00.08.37Q.9 3.53 1.86 5.31t1.66 2.87Q4.23 9.27 5 10.24t1 1.24l.37.41.34.33a8.06 8.06 0 001 .78 16.34 16.34 0 001.4.9 7.6 7.6 0 001.79.72 6.19 6.19 0 002 .22h1.57a1.08 1.08 0 00.72-.3l.05-.07a.9.9 0 00.1-.25 1.38 1.38 0 000-.37 4.48 4.48 0 01.09-1.05 2.77 2.77 0 01.23-.71 1.74 1.74 0 01.29-.4 1.19 1.19 0 01.23-.2h.11a.86.86 0 01.77.21 4.52 4.52 0 01.83.79q.39.47.93 1.05a6.41 6.41 0 001 .87l.27.16a3.31 3.31 0 00.71.3 1.53 1.53 0 00.76.07l3.48-.05a1.58 1.58 0 00.8-.17.68.68 0 00.34-.37 1.06 1.06 0 000-.46 1.71 1.71 0 00-.1-.36z" fill="#fff"/></svg>